<svg id="softwarereviews-a-division-of-info-tech-research-group-fc619d050ab3133323875f9c792ee786d0d773fd3c4334f102a883315326e0db" xmlns="http://www.w3.org/2000/svg" xmlns:xlink="http://www.w3.org/1999/xlink" width="247.656" height="64.502" viewBox="0 0 247.656 64.502">
  <defs>
    <linearGradient id="linear-gradient" x1="0.42" y1="-9.455" x2="0.64" y2="-8.383" gradientUnits="objectBoundingBox">
      <stop offset="0" stop-color="#fff"/>
      <stop offset="1" stop-color="#a8a8a8"/>
    </linearGradient>
    <linearGradient id="linear-gradient-2" x1="0" y1="-6.656" x2="1" y2="-6.656" xlink:href="#linear-gradient"/>
    <linearGradient id="linear-gradient-4" x1="0" y1="-12.814" x2="2" y2="-12.814" xlink:href="#linear-gradient"/>
    <linearGradient id="linear-gradient-5" x1="0.243" y1="-12.286" x2="0.802" y2="-13.192" gradientUnits="objectBoundingBox">
      <stop offset="0" stop-color="#66933f"/>
      <stop offset="1" stop-color="#4bb648"/>
    </linearGradient>
    <linearGradient id="linear-gradient-6" x1="-1" y1="-12.814" x2="1" y2="-12.814" xlink:href="#linear-gradient"/>
    <linearGradient id="linear-gradient-7" x1="0.718" y1="-1.867" x2="0.172" y2="-2.742" gradientUnits="objectBoundingBox">
      <stop offset="0" stop-color="#66933f"/>
      <stop offset="1" stop-color="#a3cd38"/>
    </linearGradient>
    <linearGradient id="linear-gradient-8" x1="0.287" y1="-7.171" x2="0.621" y2="-6.577" xlink:href="#linear-gradient-5"/>
    <linearGradient id="linear-gradient-9" x1="-5.976" y1="-6.864" x2="1" y2="-6.864" xlink:href="#linear-gradient"/>
    <linearGradient id="linear-gradient-10" x1="0.5" y1="-0.287" x2="0.5" y2="0.336" gradientUnits="objectBoundingBox">
      <stop offset="0" stop-color="#66933f"/>
      <stop offset="1" stop-color="#acd136"/>
    </linearGradient>
  </defs>
  <g id="Group_15118" data-name="Group 15118" transform="translate(114.454 50.082)">
    <path id="Path_15897" data-name="Path 15897" d="M546.111,242.551h-2.627l-.536,1.217h-.585l2.159-4.814h.571l2.152,4.814h-.6Zm-.234-.529-1.087-2.441-1.073,2.441h2.159Z" transform="translate(-542.363 -238.61)" fill="#333"/>
    <path id="Path_15898" data-name="Path 15898" d="M578.012,238.954h1.946a2.433,2.433,0,0,1,1.764.691,2.42,2.42,0,0,1,0,3.432,2.462,2.462,0,0,1-1.781.691h-1.925v-4.814Zm.55.53v3.762h1.4a1.875,1.875,0,0,0,1.362-.536,1.9,1.9,0,0,0-.01-2.685,1.9,1.9,0,0,0-1.372-.54h-1.382Z" transform="translate(-570.489 -238.61)" fill="#333"/>
    <path id="Path_15899" data-name="Path 15899" d="M603.039,238.019a.349.349,0,0,1,.5,0,.4.4,0,0,1,0,.529.349.349,0,0,1-.5,0,.4.4,0,0,1,0-.529Zm.519,4.927h-.53v-3.624h.53Z" transform="translate(-590.156 -237.788)" fill="#333"/>
    <path id="Path_15900" data-name="Path 15900" d="M611.094,248.215h-.557l-1.437-3.624h.571l1.155,3.067,1.149-3.067h.543Z" transform="translate(-595.017 -243.058)" fill="#333"/>
    <path id="Path_15901" data-name="Path 15901" d="M627.968,238.019a.349.349,0,0,1,.5,0,.4.4,0,0,1,0,.529.349.349,0,0,1-.5,0,.4.4,0,0,1,0-.529Zm.519,4.927h-.53v-3.624h.53Z" transform="translate(-609.824 -237.788)" fill="#333"/>
    <path id="Path_15902" data-name="Path 15902" d="M636.157,244.493a2,2,0,0,1,1.155.33l-.206.426a1.813,1.813,0,0,0-.983-.3.983.983,0,0,0-.519.12.4.4,0,0,0-.2.361.4.4,0,0,0,.21.354,1.875,1.875,0,0,0,.505.216q.3.083.591.189a1.228,1.228,0,0,1,.505.34.854.854,0,0,1,.21.592.873.873,0,0,1-.382.77,1.635,1.635,0,0,1-.946.261,1.921,1.921,0,0,1-1.389-.509l.206-.406a1.657,1.657,0,0,0,.554.337,1.828,1.828,0,0,0,.65.124,1.056,1.056,0,0,0,.553-.131.437.437,0,0,0,.224-.385.432.432,0,0,0-.2-.385,1.7,1.7,0,0,0-.5-.23q-.3-.086-.591-.186a1.174,1.174,0,0,1-.5-.327.931.931,0,0,1,.155-1.32,1.55,1.55,0,0,1,.9-.248Z" transform="translate(-615.224 -242.98)" fill="#333"/>
    <path id="Path_15903" data-name="Path 15903" d="M651.43,238.019a.349.349,0,0,1,.5,0,.4.4,0,0,1,0,.529.349.349,0,0,1-.5,0,.4.4,0,0,1,0-.529Zm.519,4.927h-.53v-3.624h.53Z" transform="translate(-628.335 -237.788)" fill="#333"/>
    <path id="Path_15904" data-name="Path 15904" d="M659.244,245.037a1.968,1.968,0,0,1,2.641,0,1.766,1.766,0,0,1,.516,1.313,1.837,1.837,0,1,1-3.672,0A1.765,1.765,0,0,1,659.244,245.037Zm2.256.354a1.354,1.354,0,0,0-1.87,0,1.472,1.472,0,0,0,0,1.939,1.354,1.354,0,0,0,1.87,0,1.472,1.472,0,0,0,0-1.939Z" transform="translate(-634.172 -243.008)" fill="#333"/>
    <path id="Path_15905" data-name="Path 15905" d="M682.533,244.494a1.346,1.346,0,0,1,1.011.375,1.421,1.421,0,0,1,.364,1.035v2.235h-.536v-2.091a1,1,0,0,0-.272-.749,1.026,1.026,0,0,0-.753-.268,1.178,1.178,0,0,0-.849.323,1.305,1.305,0,0,0-.368.839v1.946h-.536v-3.624h.536v.8a1.423,1.423,0,0,1,1.4-.818Z" transform="translate(-651.423 -242.981)" fill="#333"/>
    <path id="Path_15906" data-name="Path 15906" d="M709.688,245.037a1.968,1.968,0,0,1,2.641,0,1.766,1.766,0,0,1,.516,1.313,1.837,1.837,0,1,1-3.672,0A1.766,1.766,0,0,1,709.688,245.037Zm2.256.354a1.354,1.354,0,0,0-1.87,0,1.471,1.471,0,0,0,0,1.939,1.354,1.354,0,0,0,1.87,0,1.472,1.472,0,0,0,0-1.939Z" transform="translate(-673.971 -243.008)" fill="#333"/>
    <path id="Path_15907" data-name="Path 15907" d="M730.883,237.957a.639.639,0,0,0-.457.172.619.619,0,0,0-.182.475v.467h1.038v.44h-1.038v3.074h-.529v-3.074h-.467v-.44h.467v-.4a1.175,1.175,0,0,1,.341-.891,1.144,1.144,0,0,1,.822-.327,1.335,1.335,0,0,1,.777.254l-.22.433a.935.935,0,0,0-.55-.186Z" transform="translate(-689.809 -237.428)" fill="#333"/>
    <path id="Path_15908" data-name="Path 15908" d="M750.837,243.768h-1.224v-4.814h1.224Z" transform="translate(-705.877 -238.61)" fill="#333"/>
    <path id="Path_15909" data-name="Path 15909" d="M762.368,243.941a1.3,1.3,0,0,1,.983.388,1.436,1.436,0,0,1,.372,1.035V247.7h-1.183v-2.008a.724.724,0,0,0-.176-.512.619.619,0,0,0-.478-.189.7.7,0,0,0-.519.206.874.874,0,0,0-.237.543v1.96h-1.19V244h1.19v.6A1.37,1.37,0,0,1,762.368,243.941Z" transform="translate(-714.026 -242.545)" fill="#333"/>
    <path id="Path_15910" data-name="Path 15910" d="M782.641,238.267a.419.419,0,0,0-.306.1.387.387,0,0,0-.12.306v.268h.839v.784h-.839v2.758h-1.176v-2.758h-.5v-.784h.5V238.6a1.158,1.158,0,0,1,.4-.935,1.523,1.523,0,0,1,1.018-.337,2.019,2.019,0,0,1,1.038.261l-.42.832A.721.721,0,0,0,782.641,238.267Z" transform="translate(-730.275 -237.325)" fill="#333"/>
    <path id="Path_15911" data-name="Path 15911" d="M794.686,244.005a2.062,2.062,0,0,1,1.465.519,1.972,1.972,0,0,1,0,2.747,2.324,2.324,0,0,1-2.936,0,1.971,1.971,0,0,1,0-2.747A2.071,2.071,0,0,1,794.686,244.005Zm0,.942a.755.755,0,0,0-.6.268,1.167,1.167,0,0,0,0,1.393.809.809,0,0,0,1.2,0,1.167,1.167,0,0,0,0-1.393A.748.748,0,0,0,794.686,244.947Z" transform="translate(-739.838 -242.595)" fill="#333"/>
    <path id="Path_15912" data-name="Path 15912" d="M817.87,250.751h-1.816V250h1.816Z" transform="translate(-758.297 -247.327)" fill="#333"/>
    <path id="Path_15913" data-name="Path 15913" d="M829.487,239.912h-1.451v3.831h-1.224v-3.831h-1.437v-.99h4.112Z" transform="translate(-765.651 -238.585)" fill="#333"/>
    <path id="Path_15914" data-name="Path 15914" d="M845.686,244a1.763,1.763,0,0,1,1.448.591,2.263,2.263,0,0,1,.423,1.623H844.95a.934.934,0,0,0,.316.509.872.872,0,0,0,.557.179,1.213,1.213,0,0,0,.887-.378l.626.612a2.084,2.084,0,0,1-1.616.653,1.974,1.974,0,0,1-1.434-.516,1.816,1.816,0,0,1-.533-1.368,1.849,1.849,0,0,1,.533-1.382,1.915,1.915,0,0,1,1.4-.522Zm-.757,1.575h1.485a.756.756,0,0,0-.2-.543.683.683,0,0,0-.519-.206.7.7,0,0,0-.509.2.954.954,0,0,0-.261.547Z" transform="translate(-780.151 -242.594)" fill="#333"/>
    <path id="Path_15915" data-name="Path 15915" d="M865.3,244a2.146,2.146,0,0,1,.98.217,1.614,1.614,0,0,1,.671.615l-.853.516a.874.874,0,0,0-.75-.385.7.7,0,0,0-.561.258,1.017,1.017,0,0,0-.216.677,1.039,1.039,0,0,0,.213.684.694.694,0,0,0,.564.258.8.8,0,0,0,.757-.419l.866.509a1.536,1.536,0,0,1-.663.636,2.212,2.212,0,0,1-1.021.223,1.886,1.886,0,0,1-1.386-.519,2.042,2.042,0,0,1,.007-2.744A1.9,1.9,0,0,1,865.3,244Z" transform="translate(-795.628 -242.595)" fill="#333"/>
    <path id="Path_15916" data-name="Path 15916" d="M885.746,238.927a1.3,1.3,0,0,1,.984.388,1.436,1.436,0,0,1,.371,1.035v2.338h-1.19v-2.008a.725.725,0,0,0-.175-.512.62.62,0,0,0-.478-.189.681.681,0,0,0-.55.248.957.957,0,0,0-.206.633v1.829h-1.19v-5.1h1.19v2.008a1.371,1.371,0,0,1,1.244-.667Z" transform="translate(-811.361 -237.531)" fill="#333"/>
    <path id="Path_15917" data-name="Path 15917" d="M915.74,243.768l-.715-1.355h-.962v1.355h-1.224v-4.814h2.152a2.244,2.244,0,0,1,1.479.437,1.528,1.528,0,0,1,.522,1.241,1.576,1.576,0,0,1-.873,1.547l1.011,1.588Zm-1.678-2.318h.928a.89.89,0,0,0,.619-.2.74.74,0,0,0,.22-.578.71.71,0,0,0-.22-.564.911.911,0,0,0-.619-.192h-.928v1.534Z" transform="translate(-834.657 -238.61)" fill="#333"/>
    <path id="Path_15918" data-name="Path 15918" d="M936.863,244a1.763,1.763,0,0,1,1.448.591,2.263,2.263,0,0,1,.423,1.623h-2.606a.936.936,0,0,0,.316.509.872.872,0,0,0,.557.179,1.214,1.214,0,0,0,.887-.378l.626.612a2.084,2.084,0,0,1-1.616.653,1.974,1.974,0,0,1-1.434-.516,1.817,1.817,0,0,1-.533-1.368,1.849,1.849,0,0,1,.533-1.382,1.914,1.914,0,0,1,1.4-.522Zm-.756,1.575h1.485a.756.756,0,0,0-.2-.543.683.683,0,0,0-.519-.206.7.7,0,0,0-.509.2.953.953,0,0,0-.261.547Z" transform="translate(-852.087 -242.594)" fill="#333"/>
    <path id="Path_15919" data-name="Path 15919" d="M955.98,243.941a2.945,2.945,0,0,1,1.526.419l-.406.77a2.578,2.578,0,0,0-1.169-.371q-.364,0-.364.254,0,.138.2.23a2.9,2.9,0,0,0,.488.168,4.927,4.927,0,0,1,.574.189,1.17,1.17,0,0,1,.485.361.933.933,0,0,1,.2.605,1.012,1.012,0,0,1-.433.87,1.88,1.88,0,0,1-1.128.313,2.65,2.65,0,0,1-1.664-.523l.378-.756a2.267,2.267,0,0,0,1.314.461q.405,0,.406-.255,0-.144-.2-.24a2.627,2.627,0,0,0-.478-.172,4.807,4.807,0,0,1-.564-.189,1.173,1.173,0,0,1-.478-.354.927.927,0,0,1-.2-.605,1.015,1.015,0,0,1,.419-.866,1.784,1.784,0,0,1,1.087-.309Z" transform="translate(-867.36 -242.545)" fill="#333"/>
    <path id="Path_15920" data-name="Path 15920" d="M973.2,244a1.763,1.763,0,0,1,1.448.591,2.263,2.263,0,0,1,.423,1.623h-2.606a.934.934,0,0,0,.316.509.872.872,0,0,0,.557.179,1.213,1.213,0,0,0,.887-.378l.626.612a2.083,2.083,0,0,1-1.616.653,1.974,1.974,0,0,1-1.434-.516,1.817,1.817,0,0,1-.533-1.368,1.849,1.849,0,0,1,.533-1.382,1.914,1.914,0,0,1,1.4-.522Zm-.757,1.575h1.485a.756.756,0,0,0-.2-.543.683.683,0,0,0-.519-.206.7.7,0,0,0-.509.2.954.954,0,0,0-.261.547Z" transform="translate(-880.754 -242.594)" fill="#333"/>
    <path id="Path_15921" data-name="Path 15921" d="M992.928,243.94a1.8,1.8,0,0,1,1.186.354,1.235,1.235,0,0,1,.43.987V247.7h-1.162v-.426a1.331,1.331,0,0,1-1.135.481,1.3,1.3,0,0,1-.929-.323,1.1,1.1,0,0,1-.344-.839.99.99,0,0,1,.368-.822,1.692,1.692,0,0,1,1.056-.3h.976v-.055a.533.533,0,0,0-.182-.43.813.813,0,0,0-.54-.155,2.463,2.463,0,0,0-1.107.309l-.337-.784a4.076,4.076,0,0,1,1.719-.419Zm-.316,3.012a.876.876,0,0,0,.5-.141.6.6,0,0,0,.268-.368v-.33h-.75q-.537,0-.536.4a.4.4,0,0,0,.137.323.577.577,0,0,0,.385.117Z" transform="translate(-896.305 -242.544)" fill="#333"/>
    <path id="Path_15922" data-name="Path 15922" d="M1013.092,244v.626a1.33,1.33,0,0,1,1.2-.681v1.073a1.247,1.247,0,0,0-.832.168.824.824,0,0,0-.371.616v1.9h-1.19V244h1.19Z" transform="translate(-912.816 -242.545)" fill="#333"/>
    <path id="Path_15923" data-name="Path 15923" d="M1026.27,244a2.146,2.146,0,0,1,.98.217,1.613,1.613,0,0,1,.671.615l-.853.516a.874.874,0,0,0-.75-.385.7.7,0,0,0-.561.258,1.017,1.017,0,0,0-.217.677,1.039,1.039,0,0,0,.213.684.694.694,0,0,0,.563.258.8.8,0,0,0,.756-.419l.866.509a1.535,1.535,0,0,1-.664.636,2.212,2.212,0,0,1-1.021.223,1.887,1.887,0,0,1-1.386-.519,2.042,2.042,0,0,1,.007-2.744,1.9,1.9,0,0,1,1.393-.526Z" transform="translate(-922.632 -242.595)" fill="#333"/>
    <path id="Path_15924" data-name="Path 15924" d="M1046.728,238.927a1.3,1.3,0,0,1,.984.388,1.435,1.435,0,0,1,.371,1.035v2.338h-1.19v-2.008a.725.725,0,0,0-.175-.512.62.62,0,0,0-.478-.189.681.681,0,0,0-.55.248.956.956,0,0,0-.206.633v1.829h-1.19v-5.1h1.19v2.008a1.372,1.372,0,0,1,1.245-.667Z" transform="translate(-938.371 -237.531)" fill="#333"/>
    <path id="Path_15925" data-name="Path 15925" d="M1075.831,241.165h1.059v1.877a3.444,3.444,0,0,1-.945.451,3.5,3.5,0,0,1-1.056.175,2.547,2.547,0,0,1-1.836-.705,2.333,2.333,0,0,1-.736-1.757,2.285,2.285,0,0,1,.756-1.747,2.684,2.684,0,0,1,1.9-.7,3.1,3.1,0,0,1,1.066.192,2.762,2.762,0,0,1,.9.523l-.688.832a2,2,0,0,0-.605-.382,1.782,1.782,0,0,0-.681-.141,1.339,1.339,0,0,0-.994.409,1.488,1.488,0,0,0,0,2.039,1.352,1.352,0,0,0,1,.412,1.935,1.935,0,0,0,.853-.234v-1.245Z" transform="translate(-960.482 -238.456)" fill="#333"/>
    <path id="Path_15926" data-name="Path 15926" d="M1099.182,244v.626a1.33,1.33,0,0,1,1.2-.681v1.073a1.247,1.247,0,0,0-.832.168.825.825,0,0,0-.371.616v1.9h-1.19V244h1.19Z" transform="translate(-980.738 -242.545)" fill="#333"/>
    <path id="Path_15927" data-name="Path 15927" d="M1112.465,244.005a2.062,2.062,0,0,1,1.465.519,1.972,1.972,0,0,1,0,2.747,2.324,2.324,0,0,1-2.936,0,1.971,1.971,0,0,1,0-2.747A2.071,2.071,0,0,1,1112.465,244.005Zm0,.942a.755.755,0,0,0-.6.268,1.167,1.167,0,0,0,0,1.393.809.809,0,0,0,1.2,0,1.168,1.168,0,0,0,0-1.393A.749.749,0,0,0,1112.465,244.947Z" transform="translate(-990.556 -242.595)" fill="#333"/>
    <path id="Path_15928" data-name="Path 15928" d="M1135.861,244.2v3.707h-1.19V247.3a1.286,1.286,0,0,1-1.2.66,1.262,1.262,0,0,1-.966-.385,1.447,1.447,0,0,1-.361-1.031V244.2h1.19v2a.753.753,0,0,0,.168.519.573.573,0,0,0,.45.189.656.656,0,0,0,.53-.251.987.987,0,0,0,.193-.63V244.2h1.19Z" transform="translate(-1007.681 -242.751)" fill="#333"/>
    <path id="Path_15929" data-name="Path 15929" d="M1156.733,244a1.624,1.624,0,0,1,1.262.526,1.981,1.981,0,0,1,.478,1.386,1.95,1.95,0,0,1-.467,1.361,1.6,1.6,0,0,1-1.245.516,1.341,1.341,0,0,1-1.135-.536v1.829h-1.19v-5.041h1.19v.488a1.331,1.331,0,0,1,1.107-.53Zm-.289,2.847a.751.751,0,0,0,.6-.272,1.042,1.042,0,0,0,.23-.7,1.03,1.03,0,0,0-.23-.695.756.756,0,0,0-.6-.268.741.741,0,0,0-.588.268,1.029,1.029,0,0,0-.23.695,1.049,1.049,0,0,0,.227.7A.737.737,0,0,0,1156.444,246.851Z" transform="translate(-1025.271 -242.595)" fill="#333"/>
  </g>
  <g id="Group_15120" data-name="Group 15120">
    <g id="Group_15119" data-name="Group 15119" transform="translate(67.545 22.892)">
      <path id="Path_15930" data-name="Path 15930" d="M320.074,118.029c0-3.42,2.03-4.2,4.676-4.2,1.253,0,5.005.45,5.9.564v1.429c-1.511-.094-5.9-.237-5.9-.237-1.654-.07-2.928.094-2.928,2.453v1.551c0,2.152.991,2.311,2.408,2.311h3.353c3.141,0,3.685,2.122,3.685,4.056v1.614c0,3.349-2.424,3.868-4.77,3.868-1.159,0-4.816-.4-5.905-.589v-1.415c.945.094,3.706.269,5.905.269.967,0,3.022-.046,3.022-2.122v-1.614c0-1.345-.4-2.311-1.937-2.311h-3.307c-3.772,0-4.2-2.075-4.2-4.056V118.03Z" transform="translate(-320.074 -112.703)" fill="#333" fill-rule="evenodd"/>
      <path id="Path_15931" data-name="Path 15931" d="M385.895,147.416c2.55,0,3.772-.33,3.772-4.457,0-4.482-1.016-4.811-3.772-4.811-2.645,0-3.772.306-3.772,4.811-.008,4.172,1.339,4.455,3.772,4.455Zm0-11.014c4.226,0,5.525,1.579,5.525,6.557,0,4.646-1.3,6.2-5.525,6.2s-5.528-1.725-5.528-6.2C380.367,137.838,381.786,136.4,385.895,136.4Z" transform="translate(-367.643 -130.51)" fill="#333" fill-rule="evenodd"/>
      <path id="Path_15932" data-name="Path 15932" d="M436.087,114.89l2.289-.4v-2.333c0-1.273.069-3.677,2.9-3.677a10.788,10.788,0,0,1,3.3.565V110.2l-2.9-.025c-1.511-.025-1.559.85-1.559,1.98v2.334h3.5v1.746h-3.5v10.777h-1.748V116.236h-2.29l0-1.345Z" transform="translate(-411.602 -108.48)" fill="#333" fill-rule="evenodd"/>
      <path id="Path_15933" data-name="Path 15933" d="M478.655,124.192l2.339-.425.425-3.5h1.324v3.5h3.66v1.746h-3.672v6.318c0,2.053.54,2.524,1.347,2.712,0,0,1.936.5,2.1.5v1.252H484.1c-1.818,0-3.116-1.133-3.116-4.458v-6.319h-2.33v-1.321h0Z" transform="translate(-445.19 -117.781)" fill="#333" fill-rule="evenodd"/>
      <path id="Path_15934" data-name="Path 15934" d="M522.82,136.951l3.706,9.953,3.26-9.953h1.885L530.4,140.96l2.74,5.943,3.825-9.953h1.912l-4.794,12.525h-1.748l-2.786-6.132-2.055,6.132h-1.885l-4.7-12.523h1.912Z" transform="translate(-478.526 -130.942)" fill="#333" fill-rule="evenodd"/>
      <path id="Path_15935" data-name="Path 15935" d="M613.669,147a21.479,21.479,0,0,0,5.243-1.2v-3.373l-5.243.38a1.415,1.415,0,0,0-1.393,1.533v1.179c-.006,1.129.584,1.486,1.393,1.486Zm-3.146-2.806a2.925,2.925,0,0,1,3.141-3.137s5.242.025,5.242,0,.024-1.558,0-1.579a1.692,1.692,0,0,0-1.936-1.934c-1.7,0-3.755.118-6.045.283v-1.273a24.2,24.2,0,0,1,6.114-.707,3.3,3.3,0,0,1,3.613,3.632v9.129h-1.3l-.45-1.509c-.045,0-3.091,1.652-5.242,1.652a2.964,2.964,0,0,1-3.141-3.112l0-1.442v0Z" transform="translate(-549.228 -130.071)" fill="#333" fill-rule="evenodd"/>
      <path id="Path_15936" data-name="Path 15936" d="M666.364,136.422h1.228l.519,1.579c1.442-.826,2.74-1.722,4.676-1.722a5.508,5.508,0,0,1,1.75.188v1.722a9.653,9.653,0,0,0-1.75-.143,9.412,9.412,0,0,0-4.676,1.367v9.529h-1.747v-12.52Z" transform="translate(-593.287 -130.413)" fill="#333" fill-rule="evenodd"/>
      <path id="Path_15937" data-name="Path 15937" d="M716.712,142.094c1.04,0,1.486-.376,1.486-1.156,0-2.476-.47-2.691-3.022-2.691-2.67,0-3.755.025-3.755,3.845l5.29,0h0Zm-1.56-5.591c2.963,0,4.793.283,4.793,4.434,0,1.816-.968,2.876-3.232,2.876h-5.291c0,2.958.538,3.681,2.383,3.681a41.869,41.869,0,0,0,5.905-.237v1.321a21.893,21.893,0,0,1-5.905.662c-3.187,0-4.132-1.533-4.132-6.437.006-5.592,1.605-6.3,5.479-6.3h0Z" transform="translate(-627.457 -130.589)" fill="#333" fill-rule="evenodd"/>
      <path id="Path_15938" data-name="Path 15938" d="M777.909,122.29c1.15,0,1.7-.336,1.7-2.42,0-1.961-.66-2.445-1.7-2.445h-3.921v4.869Zm-7.238-7.8h7.561c2.694,0,4.706,1.263,4.706,5.38,0,4.272-1.791,4.779-2.753,5.082l3.273,6.8h-3.721l-2.857-6.529-2.914-.33v6.862h-3.294V114.487h0Z" transform="translate(-675.582 -113.219)" fill="#333" fill-rule="evenodd"/>
      <path id="Path_15939" data-name="Path 15939" d="M841.3,141.837c.691,0,1.045-.34,1.045-.936,0-1.583-.227-1.883-1.815-1.883-1.746,0-2.39.1-2.365,2.806l3.134.013Zm-.971-5.329c3.626,0,5.311.412,5.311,4.574,0,2.23-1.228,3.137-3.5,3.137h-3.981c0,2.26.854,2.394,2.645,2.394a27.807,27.807,0,0,0,4.6-.248v2.228a20.687,20.687,0,0,1-6.422.662c-3.187,0-4.132-1.846-4.132-6.437,0-5.394,1.5-6.309,5.477-6.309Z" transform="translate(-726.222 -130.593)" fill="#333" fill-rule="evenodd"/>
      <path id="Path_15940" data-name="Path 15940" d="M891.213,136.956l2.739,8.655,2.823-8.655H900.3l-4.549,12.523h-3.7l-4.377-12.523h3.536Z" transform="translate(-767.896 -130.947)" fill="#333" fill-rule="evenodd"/>
      <path id="Path_15941" data-name="Path 15941" d="M953.458,132.5h3.3V119.98h-3.3Zm-.12-16.473a.538.538,0,0,1,.484-.588.462.462,0,0,1,.082,0h2.48a.539.539,0,0,1,.541.536.4.4,0,0,1,0,.053v2.09a.488.488,0,0,1-.432.538.54.54,0,0,1-.108,0H953.9a.539.539,0,0,1-.566-.51v-.028l0-2.09h0Z" transform="translate(-819.699 -113.971)" fill="#333" fill-rule="evenodd"/>
      <path id="Path_15942" data-name="Path 15942" d="M982.941,141.837c.69,0,1.045-.34,1.045-.936,0-1.583-.227-1.883-1.815-1.883-1.746,0-2.389.1-2.365,2.806Zm-.961-5.329c3.625,0,5.311.412,5.311,4.574,0,2.23-1.228,3.137-3.5,3.137h-3.983c0,2.26.853,2.394,2.645,2.394a27.825,27.825,0,0,0,4.6-.248v2.228a20.689,20.689,0,0,1-6.422.662c-3.187,0-4.132-1.846-4.132-6.437-.008-5.394,1.5-6.309,5.479-6.309h0Z" transform="translate(-837.976 -130.593)" fill="#333" fill-rule="evenodd"/>
      <path id="Path_15943" data-name="Path 15943" d="M1032.793,136.956l2.513,8.655,2.246-8.655h3.292l-.874,3.374,2.077,5.281,2.475-8.655h3.551l-4.041,12.523h-3.711l-1.886-4.536-1.418,4.536h-3.77l-4.011-12.523h3.557Z" transform="translate(-879.583 -130.947)" fill="#333" fill-rule="evenodd"/>
      <path id="Path_15944" data-name="Path 15944" d="M1123.43,139.765c0-1.934.827-3.374,3.26-3.374s5.726.078,6.7.638v2.085H1127.7c-.848,0-.967.269-.967.861v.565c0,.791.418.807.967.807h2.977c2.391,0,3.329,1.415,3.329,3.229v1.285c0,2.571-1.56,3.278-3.071,3.278-2.379,0-6.118-.107-6.989-.68V146.4h5.926a.729.729,0,0,0,.826-.618.752.752,0,0,0,0-.173v-.574c0-.538-.155-.807-.83-.807h-2.923c-2.219,0-3.517-.932-3.517-3.363l0-1.1v0h0Z" transform="translate(-953.899 -130.501)" fill="#333" fill-rule="evenodd"/>
    </g>
    <path id="Path_15945" data-name="Path 15945" d="M41.128,55.356l21.56,10.393L84.253,55.356,62.687,43.685Z" transform="translate(-32.449 -34.466)" fill-rule="evenodd" fill="url(#linear-gradient)"/>
    <path id="Path_15946" data-name="Path 15946" d="M143.292,109.384v24l21.565-11.665V98.991Z" transform="translate(-113.053 -78.101)" fill-rule="evenodd" fill="url(#linear-gradient-2)"/>
    <path id="Path_15947" data-name="Path 15947" d="M41.128,121.717l21.56,11.665v-24L41.128,98.991v22.726Z" transform="translate(-32.449 -78.101)" fill-rule="evenodd" fill="url(#linear-gradient-2)"/>
    <path id="Path_15948" data-name="Path 15948" d="M0,211.237l30.238,16.333v-9.22L8.679,206.684Z" transform="translate(0 -163.068)" fill-rule="evenodd" fill="url(#linear-gradient-4)"/>
    <path id="Path_15949" data-name="Path 15949" d="M0,211.237l30.238,16.333v-9.22L8.679,206.684Z" transform="translate(0 -163.068)" fill-rule="evenodd" fill="url(#linear-gradient-5)"/>
    <path id="Path_15950" data-name="Path 15950" d="M143.292,218.348v9.22l30.233-16.333-8.668-4.553Z" transform="translate(-113.053 -163.067)" fill-rule="evenodd" fill="url(#linear-gradient-6)"/>
    <path id="Path_15951" data-name="Path 15951" d="M143.292,218.353v9.219l30.233-16.33-8.668-4.553-21.565,11.665h0Z" transform="translate(-113.053 -163.072)" fill-rule="evenodd" fill="url(#linear-gradient-7)"/>
    <path id="Path_15952" data-name="Path 15952" d="M30.25,0,.016,16.333l8.676,4.556L30.25,9.22,51.816,20.89l8.669-4.556Z" transform="translate(-0.013)" fill="#70b143" fill-rule="evenodd"/>
    <path id="Path_15953" data-name="Path 15953" d="M0,109.231l8.679-4.553V81.952L0,77.4Z" transform="translate(0 -61.062)" fill-rule="evenodd" fill="url(#linear-gradient-8)"/>
    <path id="Path_15954" data-name="Path 15954" d="M245.478,81.952V104.68l8.668,4.553V77.4l-8.668,4.556h0Z" transform="translate(-193.675 -61.062)" fill-rule="evenodd" fill="url(#linear-gradient-9)"/>
    <path id="Path_15955" data-name="Path 15955" d="M245.478,81.952V104.68l8.668,4.553V77.4l-8.668,4.556h0Z" transform="translate(-193.675 -61.062)" fill-rule="evenodd" fill="url(#linear-gradient-10)"/>
  </g>
</svg>
