<svg id="g2-crowd-vector-logo-2022" xmlns="http://www.w3.org/2000/svg" width="67.051" height="67.051" viewBox="0 0 67.051 67.051">
  <path id="Path_15956" data-name="Path 15956" d="M138.451,104.926A33.526,33.526,0,1,1,104.926,71.4a33.521,33.521,0,0,1,33.526,33.526" transform="translate(-71.4 -71.4)" fill="#ff492c"/>
  <path id="Path_15957" data-name="Path 15957" d="M214.424,192.365h-8.663v-.4a6.836,6.836,0,0,1,.885-3.648,7.4,7.4,0,0,1,3.084-2.561l.671-.335c1.194-.6,1.5-1.126,1.5-1.743,0-.738-.644-1.274-1.676-1.274a3.017,3.017,0,0,0-2.8,1.944l-1.663-1.663a4.5,4.5,0,0,1,1.73-1.891,4.818,4.818,0,0,1,2.615-.738,4.928,4.928,0,0,1,3.071.952,3.107,3.107,0,0,1,1.3,2.642c0,1.784-1.006,2.87-2.883,3.835l-1.059.536c-1.126.563-1.676,1.073-1.837,1.971h5.726Zm-.764,2.736h-9.481l-4.734,8.207h9.481l4.747,8.207,4.734-8.207Zm-13.4,13.692a10.943,10.943,0,1,1,0-21.885l3.755-7.845a19.162,19.162,0,1,0,7.523,34.276l-4.157-7.188a10.911,10.911,0,0,1-7.121,2.642" transform="translate(-166.389 -164.311)" fill="#fff"/>
</svg>
